<svg width="100" height="100" viewBox="0 0 100 100" fill="none" xmlns="http://www.w3.org/2000/svg">
<path d="M0 50C0 22.3858 22.3858 0 50 0C77.6142 0 100 22.3858 100 50C100 77.6142 77.6142 100 50 100C22.3858 100 0 77.6142 0 50Z" fill="#3B925F"/>
<path d="M75.2812 50.5H25.7188C24.202 50.5 22.7475 51.0983 21.675 52.1632C20.6025 53.2282 20 54.6725 20 56.1786C20 57.6846 20.6025 59.129 21.675 60.1939C22.7475 61.2589 24.202 61.8571 25.7188 61.8571H75.2812C76.798 61.8571 78.2525 61.2589 79.325 60.1939C80.3975 59.129 81 57.6846 81 56.1786C81 54.6725 80.3975 53.2282 79.325 52.1632C78.2525 51.0983 76.798 50.5 75.2812 50.5ZM77.1875 65.6429H23.8125C23.3069 65.6429 22.8221 65.8423 22.4646 66.1973C22.1071 66.5522 21.9062 67.0337 21.9062 67.5357V69.4286C21.9062 71.4366 22.7096 73.3625 24.1396 74.7824C25.5695 76.2023 27.509 77 29.5312 77H71.4688C73.491 77 75.4305 76.2023 76.8604 74.7824C78.2904 73.3625 79.0938 71.4366 79.0938 69.4286V67.5357C79.0938 67.0337 78.8929 66.5522 78.5354 66.1973C78.1779 65.8423 77.6931 65.6429 77.1875 65.6429ZM26.9864 46.7143H74.0136C78.1323 46.7143 80.5211 41.5208 78.1621 37.7374C73.375 30.0571 62.837 24.0118 50.5 24C38.1642 24.0118 27.625 30.0571 22.8379 37.7362C20.4766 41.5196 22.8677 46.7143 26.9864 46.7143ZM65.75 33.4643C66.127 33.4643 66.4956 33.5753 66.8091 33.7833C67.1225 33.9913 67.3669 34.2869 67.5111 34.6328C67.6554 34.9787 67.6932 35.3592 67.6196 35.7264C67.5461 36.0936 67.3645 36.4309 67.0979 36.6956C66.8313 36.9603 66.4917 37.1406 66.1219 37.2136C65.7521 37.2867 65.3688 37.2492 65.0205 37.1059C64.6722 36.9626 64.3745 36.72 64.165 36.4088C63.9555 36.0975 63.8438 35.7315 63.8438 35.3571C63.8438 34.8551 64.0446 34.3737 64.4021 34.0187C64.7596 33.6637 65.2444 33.4643 65.75 33.4643ZM50.5 29.6786C50.877 29.6786 51.2456 29.7896 51.5591 29.9976C51.8725 30.2056 52.1169 30.5012 52.2611 30.8471C52.4054 31.1929 52.4432 31.5735 52.3696 31.9407C52.2961 32.3079 52.1145 32.6452 51.8479 32.9099C51.5813 33.1746 51.2417 33.3549 50.8719 33.4279C50.5021 33.5009 50.1188 33.4635 49.7705 33.3202C49.4222 33.1769 49.1245 32.9343 48.915 32.623C48.7056 32.3118 48.5938 31.9458 48.5938 31.5714C48.5938 31.0694 48.7946 30.588 49.1521 30.233C49.5096 29.878 49.9944 29.6786 50.5 29.6786ZM35.25 33.4643C35.627 33.4643 35.9956 33.5753 36.3091 33.7833C36.6225 33.9913 36.8669 34.2869 37.0111 34.6328C37.1554 34.9787 37.1932 35.3592 37.1196 35.7264C37.0461 36.0936 36.8645 36.4309 36.5979 36.6956C36.3313 36.9603 35.9917 37.1406 35.6219 37.2136C35.2521 37.2867 34.8688 37.2492 34.5205 37.1059C34.1722 36.9626 33.8745 36.72 33.665 36.4088C33.4556 36.0975 33.3438 35.7315 33.3438 35.3571C33.3438 34.8551 33.5446 34.3737 33.9021 34.0187C34.2596 33.6637 34.7444 33.4643 35.25 33.4643Z" fill="#E0E0E0"/>
</svg>
